<?xml version="1.0" encoding="UTF-8"?>
<svg version="1.1" xmlns="http://www.w3.org/2000/svg" width="625" height="625">
<path d="M0 0 C1.546875 1.10601562 1.546875 1.10601562 3.125 2.234375 C10.71495709 7.80824974 17.89881565 13.8240514 25 20 C25.85335938 20.73992187 26.70671875 21.47984375 27.5859375 22.2421875 C38.30143259 31.70927539 48.18924567 41.72900014 57 53 C57.88007691 54.09100167 58.76165767 55.1807915 59.64453125 56.26953125 C96.01203047 101.38137368 119.90243014 160.56733829 120.203125 218.94140625 C120.21013931 219.85867493 120.21715363 220.7759436 120.22438049 221.7210083 C120.2417956 224.66822271 120.24823376 227.61523601 120.25 230.5625 C120.25101212 232.07473648 120.25101212 232.07473648 120.25204468 233.61752319 C120.23573358 248.95620113 119.73949522 263.86996837 117 279 C116.82839355 279.98049316 116.65678711 280.96098633 116.47998047 281.97119141 C111.32242401 310.74565519 101.82964193 338.23967266 88 364 C87.6390625 364.67256836 87.278125 365.34513672 86.90625 366.03808594 C68.72962877 399.63012291 42.76926583 432.18520044 11.69628906 454.76123047 C9.89117492 456.07947301 8.11316455 457.42958869 6.3359375 458.78515625 C-26.8635723 483.91680962 -66.37865757 500.73442436 -107.125 508.75 C-108.124104 508.94867676 -109.12320801 509.14735352 -110.15258789 509.35205078 C-127.10814061 512.52739059 -143.96958402 513.37878492 -161.1875 513.3125 C-162.17479095 513.31067719 -163.16208191 513.30885437 -164.17929077 513.30697632 C-179.00301171 513.26096924 -193.3944879 512.73130872 -208 510 C-209.4233667 509.75056641 -209.4233667 509.75056641 -210.87548828 509.49609375 C-232.07701484 505.73436405 -253.34147424 499.88090719 -273 491 C-273.8353125 490.62536621 -274.670625 490.25073242 -275.53125 489.86474609 C-301.72224341 478.00614848 -325.44217097 463.03884357 -347 444 C-347.845625 443.26523437 -348.69125 442.53046875 -349.5625 441.7734375 C-373.98649614 420.2458768 -392.69573793 395.06242322 -409 367 C-409.38043457 366.35337402 -409.76086914 365.70674805 -410.15283203 365.04052734 C-417.18441602 352.99724551 -422.08754852 340.0178836 -427 327 C-427.27473145 326.27280762 -427.54946289 325.54561523 -427.83251953 324.79638672 C-438.78791416 295.26478437 -443.23634006 263.37250433 -443.1875 232 C-443.18689575 231.27733948 -443.1862915 230.55467896 -443.18566895 229.81011963 C-443.15849556 217.77926677 -442.68999387 205.92294165 -441 194 C-440.87641113 193.11296387 -440.75282227 192.22592773 -440.62548828 191.31201172 C-432.34889336 134.09816825 -406.86706073 82.50486445 -368 40 C-366.68322266 38.52660156 -366.68322266 38.52660156 -365.33984375 37.0234375 C-359.5723957 30.59075049 -353.59036592 24.5995995 -347 19 C-346.38882324 18.47647949 -345.77764648 17.95295898 -345.14794922 17.41357422 C-335.5295195 9.20396293 -325.72456921 1.70068303 -315 -5 C-314.14003418 -5.54551514 -314.14003418 -5.54551514 -313.26269531 -6.10205078 C-232.83082278 -56.93590563 -130.13971498 -64.81208399 0 0 Z " fill="#201F1D" transform="translate(473,80)"/>
<path d="M0 0 C1.546875 1.10601562 1.546875 1.10601562 3.125 2.234375 C10.71495709 7.80824974 17.89881565 13.8240514 25 20 C25.85335938 20.73992187 26.70671875 21.47984375 27.5859375 22.2421875 C38.30143259 31.70927539 48.18924567 41.72900014 57 53 C57.88007691 54.09100167 58.76165767 55.1807915 59.64453125 56.26953125 C96.01203047 101.38137368 119.90243014 160.56733829 120.203125 218.94140625 C120.21013931 219.85867493 120.21715363 220.7759436 120.22438049 221.7210083 C120.2417956 224.66822271 120.24823376 227.61523601 120.25 230.5625 C120.25101212 232.07473648 120.25101212 232.07473648 120.25204468 233.61752319 C120.23573358 248.95620113 119.73949522 263.86996837 117 279 C116.82839355 279.98049316 116.65678711 280.96098633 116.47998047 281.97119141 C111.32242401 310.74565519 101.82964193 338.23967266 88 364 C87.6390625 364.67256836 87.278125 365.34513672 86.90625 366.03808594 C68.72962877 399.63012291 42.76926583 432.18520044 11.69628906 454.76123047 C9.89117492 456.07947301 8.11316455 457.42958869 6.3359375 458.78515625 C-26.8635723 483.91680962 -66.37865757 500.73442436 -107.125 508.75 C-108.124104 508.94867676 -109.12320801 509.14735352 -110.15258789 509.35205078 C-127.10814061 512.52739059 -143.96958402 513.37878492 -161.1875 513.3125 C-162.17479095 513.31067719 -163.16208191 513.30885437 -164.17929077 513.30697632 C-179.00301171 513.26096924 -193.3944879 512.73130872 -208 510 C-209.4233667 509.75056641 -209.4233667 509.75056641 -210.87548828 509.49609375 C-232.07701484 505.73436405 -253.34147424 499.88090719 -273 491 C-273.8353125 490.62536621 -274.670625 490.25073242 -275.53125 489.86474609 C-301.72224341 478.00614848 -325.44217097 463.03884357 -347 444 C-347.845625 443.26523437 -348.69125 442.53046875 -349.5625 441.7734375 C-373.98649614 420.2458768 -392.69573793 395.06242322 -409 367 C-409.38043457 366.35337402 -409.76086914 365.70674805 -410.15283203 365.04052734 C-417.18441602 352.99724551 -422.08754852 340.0178836 -427 327 C-427.27473145 326.27280762 -427.54946289 325.54561523 -427.83251953 324.79638672 C-438.78791416 295.26478437 -443.23634006 263.37250433 -443.1875 232 C-443.18689575 231.27733948 -443.1862915 230.55467896 -443.18566895 229.81011963 C-443.15849556 217.77926677 -442.68999387 205.92294165 -441 194 C-440.87641113 193.11296387 -440.75282227 192.22592773 -440.62548828 191.31201172 C-432.34889336 134.09816825 -406.86706073 82.50486445 -368 40 C-366.68322266 38.52660156 -366.68322266 38.52660156 -365.33984375 37.0234375 C-359.5723957 30.59075049 -353.59036592 24.5995995 -347 19 C-346.38882324 18.47647949 -345.77764648 17.95295898 -345.14794922 17.41357422 C-335.5295195 9.20396293 -325.72456921 1.70068303 -315 -5 C-314.14003418 -5.54551514 -314.14003418 -5.54551514 -313.26269531 -6.10205078 C-232.83082278 -56.93590563 -130.13971498 -64.81208399 0 0 Z M-266 33 C-266.90516357 33.49282471 -266.90516357 33.49282471 -267.82861328 33.99560547 C-286.80551269 44.36181898 -303.44941093 57.06324998 -319 72 C-319.8971875 72.8559375 -320.794375 73.711875 -321.71875 74.59375 C-354.21562215 106.28823025 -374.86642668 149.70713154 -383 194 C-383.18546387 194.97493408 -383.37092773 195.94986816 -383.56201172 196.9543457 C-385.28826198 207.23716113 -385.37226636 217.46862793 -385.37060547 227.87329102 C-385.37494785 230.9011395 -385.41129693 233.92748884 -385.44921875 236.95507812 C-385.52958541 251.01653121 -383.84803986 264.24694952 -381 278 C-380.81480301 278.91979141 -380.62960602 279.83958282 -380.438797 280.7872467 C-372.840414 318.42366463 -353.55955524 352.9031898 -328.31298828 381.50341797 C-327.18192124 382.7926409 -326.0713358 384.09978082 -324.96484375 385.41015625 C-321.62011847 389.36439866 -318.09566499 392.82429944 -314.140625 396.16796875 C-311.84389652 398.13359951 -309.64874011 400.18886063 -307.4375 402.25 C-296.64628308 411.95219503 -284.62693135 419.90907353 -272 427 C-271.28360352 427.40605469 -270.56720703 427.81210937 -269.82910156 428.23046875 C-244.34191049 442.55530593 -216.10421619 451.87186245 -187 455 C-186.17258301 455.0920874 -185.34516602 455.1841748 -184.49267578 455.27905273 C-127.34521998 461.10689938 -67.41972323 444.73321779 -22.62402344 408.33154297 C-22.0880957 407.89213379 -21.55216797 407.45272461 -21 407 C-20.43571289 406.53867676 -19.87142578 406.07735352 -19.29003906 405.60205078 C-6.671645 395.21105311 5.08271774 384.03787684 15 371 C15.48968262 370.3596582 15.97936523 369.71931641 16.48388672 369.05957031 C24.23925337 358.84955584 31.0068166 348.40297811 36.93603516 337.03417969 C37.88884081 335.21252371 38.87032325 333.40593426 39.85546875 331.6015625 C60.91244159 291.80051087 68.82190002 241.47613869 61 197 C60.8546582 196.16227051 60.70931641 195.32454102 60.55957031 194.46142578 C52.49366708 149.82526468 32.33947533 109.67142716 1 77 C0.41621582 76.38366699 -0.16756836 75.76733398 -0.76904297 75.13232422 C-15.7548583 59.37720854 -32.33703782 47.09174716 -51 36 C-51.63583008 35.62004883 -52.27166016 35.24009766 -52.92675781 34.84863281 C-85.9651979 15.39843884 -123.91574402 7.77854874 -161.8125 7.75 C-163.02980301 7.74898788 -163.02980301 7.74898788 -164.271698 7.74795532 C-199.98698768 7.79487009 -234.56530366 15.60342952 -266 33 Z " fill="#FEC927" transform="translate(473,80)"/>
<path d="M0 0 C1.11905293 0.94090773 2.2246919 1.8981375 3.3125 2.875 C5.67507414 5.24192313 5.67507414 5.24192313 7.859375 4.83984375 C10.52161884 3.79535027 12.5969408 2.3311709 14.9375 0.6875 C25.74874853 -6.30886057 37.06149156 -8.62412125 49.6875 -6.25 C60.59241126 -3.40776249 69.38602205 3.40229281 75.4375 12.9375 C82.14211013 25.39705876 83.35504575 40.0892478 79.4375 53.75 C78.66768979 55.84948238 77.85218019 57.93258061 77 60 C76.75862305 60.63486328 76.51724609 61.26972656 76.26855469 61.92382812 C71.26858676 74.99292669 71.26858676 74.99292669 65.0625 78.4375 C62.72265625 79.43359375 62.72265625 79.43359375 61 80 C62.23915237 76.12169139 63.64292378 72.35665456 65.20849609 68.59838867 C70.77322267 55.16374495 74.07335745 40.28489129 69.5 25.9375 C65.70300304 17.24719007 59.69435065 11.53668501 51 8 C43.93851934 5.64617311 37.14983677 6.10958325 30.3996582 9.26171875 C25.07217852 11.94634373 21.17178941 14.73991875 17 19 C16.34 19 15.68 19 15 19 C14.6596875 19.8353125 14.6596875 19.8353125 14.3125 20.6875 C12.64103234 23.63246684 10.44723648 25.68156544 8 28 C4.51162287 26.53488161 2.61486674 24.62692135 0.125 21.8125 C-7.54550728 14.07942741 -16.38697546 9.36191852 -27.3125 9.1875 C-34.20234806 9.36435172 -39.17494494 10.98976159 -44 16 C-48.34470812 21.11751955 -51.20162033 26.30589356 -52 33 C-52.14115234 34.16208984 -52.14115234 34.16208984 -52.28515625 35.34765625 C-53.98542106 64.25215806 -29.66563323 92.54895817 -12 113 C-8.94152326 116.43089126 -5.8148856 119.79425462 -2.65625 123.1328125 C0.01149716 126.01241017 2.51367533 128.96416155 5 132 C8.82322426 130.40250254 11.38133378 127.95462971 14.375 125.125 C15.45292943 124.12208583 16.5324155 123.12084268 17.61328125 122.12109375 C18.17225098 121.60401855 18.7312207 121.08694336 19.30712891 120.55419922 C44.92744703 97.03257459 80.49853241 68.64637382 117.23046875 69.77734375 C131.44837758 70.92039143 144.42930618 76.56355867 154.36328125 86.9375 C163.25277024 98.13952909 164.03396387 109.24943584 163 123 C161.4305379 131.63204153 157.36878629 138.18625035 152 145 C151.195625 146.03125 150.39125 147.0625 149.5625 148.125 C149.046875 148.74375 148.53125 149.3625 148 150 C148.44730469 150.57105469 148.89460938 151.14210938 149.35546875 151.73046875 C158.44720624 163.92386508 161.31077105 175.09550219 160 190 C158.53806837 199.7807107 153.20168458 207.90635761 145.375 213.875 C132.60931331 221.98293614 117.32686156 223.05138231 102.75 219.9375 C95.76090655 217.91537465 89.37646447 214.44291351 83 211 C85 210 85 210 87.3203125 210.70703125 C88.24585938 211.07183594 89.17140625 211.43664062 90.125 211.8125 C97.57220115 214.73441886 104.36731928 216.3766054 112.375 216.3125 C113.11814453 216.30686035 113.86128906 216.3012207 114.62695312 216.29541016 C125.40353349 216.05817506 133.83691709 212.7324745 141.7890625 205.3359375 C148.55829201 198.03317266 149.68963803 190.55789647 149.4765625 180.82421875 C147.8087529 167.44073026 137.85737817 158.19314549 128 150 C128.845625 149.01 129.69125 148.02 130.5625 147 C131.1090625 146.35417969 131.655625 145.70835937 132.21875 145.04296875 C133.37056217 143.72192102 134.5567847 142.42978409 135.78125 141.17578125 C142.93958914 133.68778176 146.24325282 125.61907879 146.625 115.25 C146.38320617 108.85226602 145.39598823 104.68607883 141 100 C140.49210937 99.43796875 139.98421875 98.8759375 139.4609375 98.296875 C132.2854646 91.291437 123.23582691 90.43726995 113.58789062 90.51879883 C93.14168616 91.31258739 74.77249065 105.02955841 59 117 C58.43506836 117.42216797 57.87013672 117.84433594 57.28808594 118.27929688 C48.85400247 124.59891998 41.09202578 131.46165152 33.47265625 138.73828125 C30.0906483 141.9565349 26.5744702 144.99826128 23 148 C24.77299789 151.82525178 27.00058814 154.1383957 30.0625 157.0625 C35.50479156 162.37231297 40.27642166 168.03910871 45 174 C45.94453312 175.14494947 46.8912604 176.28809137 47.83984375 177.4296875 C54.84119009 185.91475534 61.03073472 194.7223702 66.81298828 204.07958984 C67.8614026 205.77576982 68.92743722 207.46103123 69.99609375 209.14453125 C75.03374157 217.34613606 78.62070107 226.01848226 82 235 C82.36480469 235.92167969 82.72960937 236.84335937 83.10546875 237.79296875 C87.95165388 252.10400371 85.96788108 269.01926974 79.8671875 282.50390625 C74.14899486 293.69414416 65.62204369 301.28415121 53.75 305.375 C40.48982385 309.04894869 29.14941967 306.91654116 17.125 300.5625 C14.37925175 298.96867506 12.04429509 297.24670331 9.6875 295.125 C7.33157152 292.76319549 7.33157152 292.76319549 5.19140625 293.15625 C1.27171619 294.66543548 -2.16786327 297.01687924 -5.734375 299.2109375 C-12.9104379 303.14232124 -18.75333559 304.48719723 -26.9375 304.375 C-27.77990234 304.38660156 -28.62230469 304.39820313 -29.49023438 304.41015625 C-40.94883448 304.35722969 -48.58188207 300.18526105 -56.72265625 292.33984375 C-66.53616191 281.72318673 -68.69194211 268.87621083 -68.37890625 254.96484375 C-67.76957254 243.67579024 -63.32858787 231.29415803 -57 222 C-54.31128925 219.66003416 -51.68503801 218 -48 218 C-49.41903753 221.59009955 -50.91689946 225.13943208 -52.4375 228.6875 C-53.29665539 230.78963465 -54.15107783 232.89371198 -55 235 C-55.32742187 235.75925781 -55.65484375 236.51851562 -55.9921875 237.30078125 C-59.81470348 247.54876456 -59.9145637 262.71989682 -56.03515625 272.96875 C-52.18134205 280.53095144 -46.2273636 287.25754547 -38 290 C-26.73482421 291.17317807 -17.36862983 290.04694231 -8 283 C-3.33408179 278.98635936 0.87363159 274.55819767 5 270 C8.51321224 271.47759262 10.51328498 273.44824592 13.0625 276.25 C17.79951238 281.12865062 22.90658142 284.08349196 29 287 C29.66 287.33 30.32 287.66 31 288 C40.04934384 288.79181759 48.61307929 288.96476588 56 283 C64.29940524 273.57437067 64.88316279 263.3496783 64.22949219 251.35644531 C63.65262451 245.43311889 61.52603965 240.33077381 59 235 C58.69416992 234.34854004 58.38833984 233.69708008 58.07324219 233.02587891 C50.52661048 217.21228912 40.25085459 203.36167066 29 190 C27.49968071 188.12525548 25.99968411 186.25025267 24.5 184.375 C20.89636211 179.95580195 17.05979227 175.91754277 12.9453125 171.97265625 C11.08732743 170.08855493 9.53196793 168.15342663 8 166 C4.39280757 166.57080847 2.88115639 167.83995071 0.4375 170.5 C-3.47424871 174.56331093 -7.64856173 178.08218918 -12.05078125 181.6015625 C-14.53791789 183.62421402 -16.94136056 185.71253507 -19.33886719 187.83935547 C-36.42807508 202.83722673 -56.64222737 215.22935721 -78 223 C-79.02222656 223.41507813 -80.04445313 223.83015625 -81.09765625 224.2578125 C-93.39799925 228.79703585 -109.19107871 229.23840895 -121.43359375 224.2578125 C-131.82432443 219.16524739 -141.12228659 212.86597764 -146 202 C-146.37125 201.22269531 -146.7425 200.44539062 -147.125 199.64453125 C-151.60293247 189.11828027 -151.51431766 177.67926611 -147.4765625 167.00390625 C-144.65039795 161.25438101 -141.12577294 155.90078001 -137 151 C-136.01 150.67 -135.02 150.34 -134 150 C-135.34545228 146.25671197 -137.07122519 143.3543088 -139.375 140.125 C-145.52041448 130.63104027 -148.69240174 118.76971811 -146.52734375 107.55078125 C-143.58440893 96.04337745 -136.35537375 87.78738386 -126.52734375 81.390625 C-117.26189915 76.64458432 -105.20830958 76.55840795 -95 78 C-94.01 78.66 -93.02 79.32 -92 80 C-93.86591797 80.03867188 -93.86591797 80.03867188 -95.76953125 80.078125 C-109.32936523 80.48440195 -121.03868432 81.77812677 -131 92 C-136.28112896 99.41165776 -138.75092955 106.92493648 -138 116 C-135.57816586 128.10917072 -128.58054378 136.60541228 -120 145 C-118.515 145.99 -118.515 145.99 -117 147 C-118.53345593 150.58630823 -120.70375209 152.99482156 -123.375 155.8125 C-131.40990546 164.59543839 -134.53184074 172.53479446 -134.3046875 184.5234375 C-133.70174584 191.40315641 -131.36917992 196.01246657 -126.4375 200.8125 C-118.28186288 207.29479937 -109.21436622 209.07657844 -99 208 C-90.74837031 206.62119298 -83.43412864 203.76308024 -76 200 C-74.97003906 199.484375 -73.94007813 198.96875 -72.87890625 198.4375 C-57.02745056 190.2168171 -42.40101134 179.17518143 -29.27734375 167.09375 C-27.13497695 165.12409545 -24.95412503 163.21246411 -22.75 161.3125 C-20.26029357 159.15542641 -17.91509342 156.93003619 -15.625 154.5625 C-13 152 -13 152 -11 152 C-11.52758908 148.20917478 -12.32661017 146.16404467 -14.9375 143.375 C-15.57042969 142.6840625 -16.20335937 141.993125 -16.85546875 141.28125 C-17.91701172 140.15203125 -17.91701172 140.15203125 -19 139 C-45.75623152 110.2904273 -73.57630588 74.80266484 -72.34375 33.71484375 C-71.63963458 21.05836916 -65.23537581 9.20082509 -56.015625 0.5625 C-38.98878968 -12.63659714 -17.614324 -11.94493632 0 0 Z " fill="#DCC76D" transform="translate(306,164)"/>
<path d="M0 0 C9.04950729 7.75672054 16.57015989 15.70684036 24 25 C24.94896926 26.14841929 25.89955964 27.29550046 26.8515625 28.44140625 C33.84676533 36.92410129 40.03370804 45.72718182 45.81298828 55.07958984 C46.8614026 56.77576982 47.92743722 58.46103123 48.99609375 60.14453125 C54.03374157 68.34613606 57.62070107 77.01848226 61 86 C61.54720703 87.38251953 61.54720703 87.38251953 62.10546875 88.79296875 C66.95165388 103.10400371 64.96788108 120.01926974 58.8671875 133.50390625 C53.14899486 144.69414416 44.62204369 152.28415121 32.75 156.375 C19.48982385 160.04894869 8.14941967 157.91654116 -3.875 151.5625 C-6.62074825 149.96867506 -8.95570491 148.24670331 -11.3125 146.125 C-13.66842848 143.76319549 -13.66842848 143.76319549 -15.80859375 144.15625 C-19.72828381 145.66543548 -23.16786327 148.01687924 -26.734375 150.2109375 C-33.9104379 154.14232124 -39.75333559 155.48719723 -47.9375 155.375 C-48.77990234 155.38660156 -49.62230469 155.39820313 -50.49023438 155.41015625 C-61.94883448 155.35722969 -69.58188207 151.18526105 -77.72265625 143.33984375 C-87.53616191 132.72318673 -89.69194211 119.87621083 -89.37890625 105.96484375 C-88.76957254 94.67579024 -84.32858787 82.29415803 -78 73 C-75.31128925 70.66003416 -72.68503801 69 -69 69 C-70.41903753 72.59009955 -71.91689946 76.13943208 -73.4375 79.6875 C-74.29665539 81.78963465 -75.15107783 83.89371198 -76 86 C-76.32742187 86.75925781 -76.65484375 87.51851563 -76.9921875 88.30078125 C-80.81470348 98.54876456 -80.9145637 113.71989682 -77.03515625 123.96875 C-73.18134205 131.53095144 -67.2273636 138.25754547 -59 141 C-47.73482421 142.17317807 -38.36862983 141.04694231 -29 134 C-24.33408179 129.98635936 -20.12636841 125.55819767 -16 121 C-12.48678776 122.47759262 -10.48671502 124.44824592 -7.9375 127.25 C-3.20048762 132.12865062 1.90658142 135.08349196 8 138 C8.66 138.33 9.32 138.66 10 139 C19.04934384 139.79181759 27.61307929 139.96476588 35 134 C43.29940524 124.57437067 43.88316279 114.3496783 43.22949219 102.35644531 C42.65262451 96.43311889 40.52603965 91.33077381 38 86 C37.54125488 85.02281006 37.54125488 85.02281006 37.07324219 84.02587891 C29.52661048 68.21228912 19.25085459 54.36167066 8 41 C6.49968071 39.12525548 4.99968411 37.25025267 3.5 35.375 C-0.04699629 31.02806923 -3.80822838 27.04656654 -7.859375 23.16796875 C-10.40026635 20.59462076 -12.68484601 17.77818479 -15 15 C-10.05 10.05 -5.1 5.1 0 0 Z " fill="#D3B53B" transform="translate(327,313)"/>
<path d="M0 0 C1.11905293 0.94090773 2.2246919 1.8981375 3.3125 2.875 C5.67507414 5.24192313 5.67507414 5.24192313 7.859375 4.83984375 C10.52161884 3.79535027 12.5969408 2.3311709 14.9375 0.6875 C25.74874853 -6.30886057 37.06149156 -8.62412125 49.6875 -6.25 C60.59241126 -3.40776249 69.38602205 3.40229281 75.4375 12.9375 C82.14211013 25.39705876 83.35504575 40.0892478 79.4375 53.75 C78.66768979 55.84948238 77.85218019 57.93258061 77 60 C76.75862305 60.63486328 76.51724609 61.26972656 76.26855469 61.92382812 C71.26858676 74.99292669 71.26858676 74.99292669 65.0625 78.4375 C62.72265625 79.43359375 62.72265625 79.43359375 61 80 C62.23915237 76.12169139 63.64292378 72.35665456 65.20849609 68.59838867 C70.77322267 55.16374495 74.07335745 40.28489129 69.5 25.9375 C65.70300304 17.24719007 59.69435065 11.53668501 51 8 C43.93851934 5.64617311 37.14983677 6.10958325 30.3996582 9.26171875 C25.07217852 11.94634373 21.17178941 14.73991875 17 19 C16.34 19 15.68 19 15 19 C14.773125 19.556875 14.54625 20.11375 14.3125 20.6875 C12.64103234 23.63246684 10.44723648 25.68156544 8 28 C4.51162287 26.53488161 2.61486674 24.62692135 0.125 21.8125 C-7.54550728 14.07942741 -16.38697546 9.36191852 -27.3125 9.1875 C-34.20234806 9.36435172 -39.17494494 10.98976159 -44 16 C-48.34470812 21.11751955 -51.20162033 26.30589356 -52 33 C-52.14115234 34.16208984 -52.14115234 34.16208984 -52.28515625 35.34765625 C-53.98542106 64.25215806 -29.66563323 92.54895817 -12 113 C-8.94152326 116.43089126 -5.8148856 119.79425462 -2.65625 123.1328125 C0.01132151 126.01222057 2.49898562 128.97651343 5 132 C5.66 132.66 6.32 133.32 7 134 C6.50371094 134.42410156 6.00742187 134.84820312 5.49609375 135.28515625 C-3.22198582 142.06282744 -3.22198582 142.06282744 -9 151 C-11 150 -11 150 -11.80859375 147.7578125 C-13.30680132 144.28983039 -15.31803493 142.46120478 -18.0625 139.875 C-23.52023028 134.59177464 -28.32437749 128.99438783 -33 123 C-33.48726563 122.38382813 -33.97453125 121.76765625 -34.4765625 121.1328125 C-49.49135268 102.1239402 -62.82768138 82.34633267 -70 59 C-70.36931641 57.81664062 -70.36931641 57.81664062 -70.74609375 56.609375 C-74.29692463 42.60195941 -73.26958997 26.75656758 -66.421875 14.078125 C-59.65752672 2.8042112 -51.80678991 -3.34435136 -39.6875 -8.375 C-25.49657702 -10.78024118 -11.95807535 -8.10922114 0 0 Z " fill="#D3B53B" transform="translate(306,164)"/>
<path d="M0 0 C1.85625 0.6496875 1.85625 0.6496875 3.75 1.3125 C14.17812836 4.74516004 24.01049258 6.52855663 35 7 C35 7.33 35 7.66 35 8 C31.37 8 27.74 8 24 8 C24 8.66 24 9.32 24 10 C18.33340572 9.45713729 13.79433143 7.89964708 8.625 5.5625 C7.90183594 5.24990234 7.17867188 4.93730469 6.43359375 4.61523438 C1.13125377 2.26250753 1.13125377 2.26250753 0 0 Z " fill="#B7A55D" transform="translate(389,374)"/>
</svg>
